<svg fill="#4a90e2" xmlns="http://www.w3.org/2000/svg"  viewBox="0 0 25 25" width="66px" height="66px"><path d="M 14 0 C 13.4 0 13 0.4 13 1 C 13 1.6 13.4 2 14 2 C 18.9 2 22.800781 6.0007812 22.800781 10.800781 C 22.800781 11.400781 23.200781 11.800781 23.800781 11.800781 C 24.400781 11.800781 24.800781 11.400781 24.800781 10.800781 C 24.800781 4.9007812 20 2.3684758e-15 14 0 z M 4.6992188 2.9257812 C 4.1242188 2.9257812 3.5496094 3.1496094 3.0996094 3.5996094 L 1.9003906 4.8007812 C -1.8996094 8.6007812 1.1 15.199609 5.5 19.599609 C 8.6 22.599609 12.6 25 16 25 C 17.6 25 19.100391 24.499219 20.400391 23.199219 L 21.599609 22 C 22.499609 21.1 22.499609 19.700781 21.599609 18.800781 L 18.5 15.699219 C 17.6 14.799219 16.200781 14.799219 15.300781 15.699219 L 14.599609 16.400391 C 14.099609 16.900391 12.3 16.3 10.5 14.5 C 8.7 12.7 8.0996094 10.900391 8.5996094 10.400391 L 9.3007812 9.6992188 C 10.200781 8.7992187 10.200781 7.4 9.3007812 6.5 L 6.3007812 3.5996094 C 5.8507813 3.1496094 5.2742187 2.9257812 4.6992188 2.9257812 z M 14 4 C 13.4 4 13 4.4 13 5 C 13 5.6 13.5 6 14 6 C 16.7 6 18.800781 8.2007812 18.800781 10.800781 C 18.800781 11.400781 19.200781 11.800781 19.800781 11.800781 C 20.400781 11.800781 20.800781 11.400781 20.800781 10.800781 C 20.900781 7.0007812 17.8 4 14 4 z M 14 7.9003906 C 13.4 7.9003906 13 8.3003906 13 8.9003906 C 13 9.5003906 13.5 9.9003906 14 9.9003906 C 14.5 9.9003906 14.900391 10.300781 14.900391 10.800781 C 14.900391 11.400781 15.300391 11.800781 15.900391 11.800781 C 16.500391 11.800781 16.900391 11.400781 16.900391 10.800781 C 16.900391 9.2007813 15.6 7.9003906 14 7.9003906 z"/></svg>