<svg fill="#4a90e2" xmlns="http://www.w3.org/2000/svg"  viewBox="0 0 512 512" width="64px" height="64px"><path d="M 91.484375 12 C 62.684375 12 39.265344 35.700781 39.277344 64.550781 C 39.293344 93.341781 62.720813 117 91.507812 117 L 91.535156 117 C 120.28216 117 143 94.020969 144 64.792969 L 144 64.617188 C 144 35.825187 120.33881 12 91.507812 12 L 91.484375 12 z M 348.69922 12 C 319.89922 12 296.47919 35.699922 296.49219 64.544922 C 296.50819 93.337922 319.93461 117 348.72461 117 L 349.44531 117 A 51.217 51.217 0 0 0 386.05469 101.48047 A 52.713 52.713 0 0 0 348.72461 12 L 348.69922 12 z M 91.53125 26 L 91.548828 26 A 38.493 38.493 0 0 1 129.7793 64.433594 C 129.3433 85.926594 112.55425 103 91.53125 103 L 91.507812 103 A 38.500002 38.500002 0 0 1 91.53125 26 z M 348.74805 26 L 348.76562 26 A 38.47 38.47 0 0 1 387 64.507812 A 38.014 38.014 0 0 1 376.08789 91.550781 A 37.516 37.516 0 0 1 349.34766 103 L 348.72656 103 A 38.500002 38.500002 0 0 1 348.74805 26 z M 220.09961 47 A 52.500001 52.500001 0 0 0 220.11523 152 L 220.11914 152 L 220.18555 152 C 248.98555 152 272.40277 128.29908 272.38477 99.455078 A 52.512 52.512 0 0 0 220.11914 47 L 220.09961 47 z M 220.14258 61 L 220.16016 61 A 38.500002 38.500002 0 0 1 220.18164 138 L 220.11914 138 A 38.547 38.547 0 0 1 193.07422 72.300781 A 38.077 38.077 0 0 1 220.14258 61 z M 79.988281 130 C 39.477281 130 6 162.99225 6 203.53125 L 6 275.86133 A 7.484 7.484 0 0 0 13.414062 283 L 135 283 L 135 311.10742 A 6.927 6.927 0 0 0 142.02148 318 L 241.00781 318 A 135.055 135.055 0 0 0 233.24609 363.36523 C 233.24609 438.44923 294.33006 499.56445 369.41406 499.56445 C 444.49806 499.56445 505.41406 438.4922 505.41406 363.4082 A 135.262 135.262 0 0 0 434 243.74805 L 434 203.76367 A 73.342 73.342 0 0 0 360.875 130 L 337.78906 130 A 74.769 74.769 0 0 0 269.32422 175.45508 A 73.041 73.041 0 0 0 231.78906 165 L 208.58984 165 A 73.223 73.223 0 0 0 171.11133 175.35742 A 74.208 74.208 0 0 0 102.96875 130 L 79.988281 130 z M 80 144 L 102.95312 144 A 60.269 60.269 0 0 1 159.43164 184.12109 C 158.48864 184.96909 157.55148 185.85972 156.64648 186.76172 A 73.012 73.012 0 0 0 135 238.7793 L 135 269 L 20 269 L 20 203.54297 C 20 170.72597 47.183 144 80 144 z M 337.78906 144 L 360.86328 144 A 59.343 59.343 0 0 1 420 203.75195 L 420 237.13672 C 405 230.76672 387.11319 227.24805 369.11719 227.24805 A 134.77 134.77 0 0 0 305 243.3418 L 305 239.01172 A 73.11 73.11 0 0 0 283.66406 186.94922 C 282.74706 186.02922 281.87202 185.10719 280.91602 184.24219 A 60.936 60.936 0 0 1 337.78906 144 z M 208.60547 179 L 231.77734 179 A 58.937 58.937 0 0 1 273.74805 196.67578 A 59.549 59.549 0 0 1 291 239 L 291 251.97852 A 134.425 134.425 0 0 0 246.85742 304 L 149 304 L 149 238.79297 A 59.864 59.864 0 0 1 208.60547 179 z M 364.33594 241.35352 A 122.17 122.17 0 0 1 491.58594 363.41992 A 122.308 122.308 0 0 1 369.41406 485.58789 A 122.17 122.17 0 0 1 364.33594 241.35352 z M 369 278.35352 C 343.947 278.35352 324 298.92684 324 324.21484 L 324 338.67773 A 27.2 27.2 0 0 0 303 364.89648 L 303 422.64648 C 303 437.53448 315.10419 450 329.99219 450 L 408.00781 450 C 422.90081 450 435 437.53448 435 422.64648 L 435 364.90039 A 27.2 27.2 0 0 0 414 338.67773 L 414 324.21484 C 414 298.92684 394.053 278.35352 369 278.35352 z M 369 292.35352 C 386.333 292.35352 400 306.64684 400 324.21484 L 400 338 L 338 338 L 338 324.21484 C 338 306.64684 351.667 292.35352 369 292.35352 z M 330 352 L 408 352 A 13 13 0 0 1 421 365 L 421 423 A 13 13 0 0 1 408 436 L 330 436 A 13 13 0 0 1 317 423 L 317 365 A 13 13 0 0 1 330 352 z M 368.78711 378.05078 A 16.324 16.324 0 0 0 361 408.72266 L 361 418 A 7 7 0 0 0 375 418 L 375 409.46875 A 16.322 16.322 0 0 0 368.78711 378.05078 z M 368.78711 392.05078 A 2.324 2.324 0 0 1 370.07227 396.3125 A 7.023 7.023 0 0 0 368 396 A 6.878 6.878 0 0 0 367.18359 396.05273 A 2.321 2.321 0 0 1 368.78711 392.05273 L 368.78711 392.05078 z"/></svg>