<svg fill="#4a90e2" xmlns="http://www.w3.org/2000/svg"  viewBox="0 0 512 512" width="64px" height="64px"><path d="M 48 8 A 8 8 0 0 0 40 16 L 40 32 L 36 32 A 28.031 28.031 0 0 0 8 60 L 8 420 A 28.031 28.031 0 0 0 36 448 L 222.50977 448 A 159.7 159.7 0 0 0 344 504 C 432.22 504 504 432.22 504 344 C 504 278.52 464.46 222.10914 408 197.36914 L 408 60 A 28.031 28.031 0 0 0 380 32 L 376 32 L 376 16 A 8 8 0 0 0 368 8 L 336 8 A 8 8 0 0 0 328 16 L 328 32 L 280 32 L 280 16 A 8 8 0 0 0 272 8 L 240 8 A 8 8 0 0 0 232 16 L 232 32 L 184 32 L 184 16 A 8 8 0 0 0 176 8 L 144 8 A 8 8 0 0 0 136 16 L 136 32 L 88 32 L 88 16 A 8 8 0 0 0 80 8 L 48 8 z M 56 24 L 72 24 L 72 56 L 56 56 L 56 24 z M 152 24 L 168 24 L 168 56 L 152 56 L 152 24 z M 248 24 L 264 24 L 264 56 L 248 56 L 248 24 z M 344 24 L 360 24 L 360 56 L 344 56 L 344 24 z M 36 48 L 40 48 L 40 64 A 8 8 0 0 0 48 72 L 80 72 A 8 8 0 0 0 88 64 L 88 48 L 136 48 L 136 64 A 8 8 0 0 0 144 72 L 176 72 A 8 8 0 0 0 184 64 L 184 48 L 232 48 L 232 64 A 8 8 0 0 0 240 72 L 272 72 A 8 8 0 0 0 280 64 L 280 48 L 328 48 L 328 64 A 8 8 0 0 0 336 72 L 368 72 A 8 8 0 0 0 376 64 L 376 48 L 380 48 A 12.01 12.01 0 0 1 392 60 L 392 80 L 24 80 L 24 60 A 12.01 12.01 0 0 1 36 48 z M 24 96 L 392 96 L 392 191.35938 A 157.966 157.966 0 0 0 368 185.80078 L 368 168 A 8 8 0 0 0 360 160 L 328 160 A 8 8 0 0 0 320 168 L 320 185.80078 C 243.12 197.41078 184 263.93 184 344 A 159.056 159.056 0 0 0 210.43945 432 L 36 432 A 12.01 12.01 0 0 1 24 420 L 24 96 z M 336 176 L 352 176 L 352 184 L 336 184 L 336 176 z M 344 200 C 423.4 200 488 264.6 488 344 C 488 423.4 423.4 488 344 488 C 264.6 488 200 423.4 200 344 C 200 264.6 264.6 200 344 200 z M 344 216 A 128 128 0 1 0 472 344 A 128.145 128.145 0 0 0 344 216 z M 336 232.28906 L 336 240 A 8 8 0 0 0 352 240 L 352 232.28906 A 112.168 112.168 0 0 1 455.71094 336 L 448 336 A 8 8 0 0 0 448 352 L 455.71094 352 A 112.168 112.168 0 0 1 352 455.71094 L 352 448 A 8 8 0 0 0 336 448 L 336 455.71094 A 112.168 112.168 0 0 1 232.28906 352 L 240 352 A 8 8 0 0 0 240 336 L 232.28906 336 A 112.168 112.168 0 0 1 336 232.28906 z M 343.76562 256.00391 A 8 8 0 0 0 336 264 L 336 320 A 8.043 8.043 0 0 0 336.11914 321.33594 A 24 24 0 1 0 354.3418 365.6543 L 378.3418 389.6543 A 8.0002061 8.0002061 0 0 0 389.6543 378.3418 L 365.6543 354.33984 A 23.988 23.988 0 0 0 351.88086 321.33984 A 8.043 8.043 0 0 0 352 320 L 352 264 A 8 8 0 0 0 343.76562 256.00391 z M 344.23438 336.00391 A 8 8 0 0 1 344 352 A 8.009 8.009 0 0 1 336 344 A 8 8 0 0 1 344.23438 336.00391 z"/></svg>