<svg fill="#4a90e2" xmlns="http://www.w3.org/2000/svg"  viewBox="0 0 512 512" width="64px" height="64px"><path d="M 255.53125 36.339844 A 52.163 52.163 0 0 0 222.73438 48.373047 L 189.53906 76 L 105.78711 76 A 9.447 9.447 0 0 0 96 85.552734 L 96 153.94531 L 39.882812 200.32617 A 9.995 9.995 0 0 0 36.167969 208 L 36 208 L 36 423.83008 A 52.355 52.355 0 0 0 88.28125 476 L 423.71875 476 A 52.355 52.355 0 0 0 476 423.83008 L 476 208 L 475.83203 208 A 9.966 9.966 0 0 0 472.15234 200.33203 L 415 152.98047 L 415 85.552734 A 9.492 9.492 0 0 0 405.1582 76 L 322.45898 76 L 289.25977 48.261719 A 52.163 52.163 0 0 0 255.53125 36.339844 z M 256.29297 56.333984 A 32.146 32.146 0 0 1 276.5 63.771484 L 291.11914 76 L 220.88086 76 L 235.5 63.660156 A 32.146 32.146 0 0 1 256.29297 56.333984 z M 116 96 L 395 96 L 395 248.30859 L 275.12891 337.78711 A 32.094 32.094 0 0 1 236.85742 337.78711 L 116 247.52148 L 116 96 z M 236 126 A 10 10 0 0 0 226 136 L 226 175 L 187 175 A 10 10 0 0 0 177 185 L 177 225 A 10 10 0 0 0 187 235 L 226 235 L 226 274 A 10 10 0 0 0 236 284 L 276 284 A 10 10 0 0 0 286 274 L 286 235 L 325 235 A 10 10 0 0 0 335 225 L 335 185 A 10 10 0 0 0 325 175 L 286 175 L 286 136 A 10 10 0 0 0 276 126 L 236 126 z M 246 146 L 266 146 L 266 185 A 10 10 0 0 0 276 195 L 315 195 L 315 215 L 276 215 A 10 10 0 0 0 266 225 L 266 264 L 246 264 L 246 225 A 10 10 0 0 0 236 215 L 197 215 L 197 195 L 236 195 A 10 10 0 0 0 246 185 L 246 146 z M 415 178.97461 L 449.52344 207.63281 L 415 233.38867 L 415 178.97461 z M 96 179.91797 L 96 232.59961 L 62.539062 207.64062 L 96 179.91797 z M 56 227.99023 L 224.75586 353.81836 A 52.646 52.646 0 0 0 287.22461 353.81836 L 456 227.99023 L 456 423.83008 A 32.332 32.332 0 0 1 423.71875 456 L 88.28125 456 A 32.332 32.332 0 0 1 56 423.83008 L 56 227.99023 z"/></svg>