<svg fill="#4a90e2" xmlns="http://www.w3.org/2000/svg"  viewBox="0 0 512 512" width="64px" height="64px"><path d="m 331.986,103.583 a 8,8 0 0 0 -8.3,-7.715 l -37.576,1.407 a 8,8 0 0 0 -7.695,8.287 l 4.24,116.121 a 8,8 0 0 0 7.7,7.7 l 116.111,4.23 c 0.1,0 0.2,0 0.3,0 a 8,8 0 0 0 7.989,-7.7 l 1.417,-37.568 a 8,8 0 0 0 -7.71,-8.3 l -37.016,-1.314 77.58,-77.578 a 8,8 0 0 0 0,-11.314 l -26.87,-26.871 a 8,8 0 0 0 -11.314,0 l -77.57,77.57 z m -269.036,318.61 26.87,26.87 a 8,8 0 0 0 11.315,0 L 178.7,371.5 l 1.275,36.934 a 8,8 0 0 0 8.3,7.718 l 37.564,-1.42 a 8,8 0 0 0 7.693,-8.286 L 229.279,290.32 a 8,8 0 0 0 -7.7,-7.7 l -116.114,-4.233 c -0.1,0 -0.2,0 -0.3,0 a 8,8 0 0 0 -7.989,7.7 l -1.395,37.59 a 8,8 0 0 0 7.707,8.292 l 37.049,1.329 -77.587,77.581 a 8,8 0 0 0 0,11.314 z"/></svg>