<svg fill="#4a90e2" xmlns="http://www.w3.org/2000/svg"  viewBox="0 0 64 64" width="64px" height="64px"><path d="M53,10c-13,0-19-4-19-4h-4c0,0-6,4-19,4l-2,2v20c0,19,23,26,23,26s23-7,23-26V12L53,10z M48.076,15.815L49,16.838	l-0.133,10.001L48.8,31.846c-0.001,1.773-0.29,3.618-0.923,5.313c-1.244,3.436-3.655,6.259-6.361,8.458	c-1.359,1.111-2.811,2.08-4.309,2.951c-0.75,0.434-1.513,0.842-2.285,1.228l-1.166,0.56l-0.588,0.268l-0.17,0.076	c-0.106,0.045-0.215,0.086-0.326,0.124C32.45,50.9,32.222,50.958,32,51c-0.222-0.042-0.45-0.1-0.672-0.176	c-0.111-0.038-0.22-0.079-0.326-0.124l-0.17-0.076l-0.588-0.268l-1.166-0.56c-0.772-0.385-1.535-0.794-2.285-1.228	c-1.498-0.871-2.95-1.841-4.309-2.951c-2.706-2.199-5.117-5.022-6.361-8.458c-0.633-1.696-0.923-3.541-0.923-5.313l-0.067-5.006	L15,16.839v0l0.923-1.023c2.661-0.211,5.307-0.584,7.896-1.185c2.584-0.6,5.127-1.412,7.493-2.533L31.743,12h0.513l0.431,0.098	c2.366,1.12,4.908,1.932,7.492,2.532c2.588,0.601,5.234,0.975,7.895,1.185L48.076,15.815z M46.425,31.802l0.192-5.001l0.347-9.082	c-2.428-0.228-4.849-0.586-7.236-1.14c-2.62-0.61-5.202-1.43-7.678-2.578h-0.101c-2.476,1.148-5.058,1.969-7.679,2.579	c-2.387,0.554-4.807,0.912-7.235,1.14l0.347,9.083l0.192,5.001c0.042,1.561,0.32,3.056,0.888,4.477	c1.11,2.848,3.235,5.258,5.733,7.186c1.25,0.971,2.603,1.828,4.009,2.599c0.704,0.384,1.422,0.746,2.152,1.087l1.103,0.496	L32,47.878l0.54-0.23l1.103-0.496c0.73-0.341,1.448-0.703,2.152-1.087c1.406-0.771,2.759-1.628,4.009-2.599	c2.498-1.928,4.623-4.338,5.733-7.186C46.105,34.858,46.383,33.363,46.425,31.802z M33.539,28.461C38.339,28.234,40,27,40,27v6	c0,0-1.661-1.234-6.461-1.461C33.766,36.339,35,38,35,38h-6c0,0,1.234-1.661,1.461-6.461C25.661,31.766,24,33,24,33v-6	c0,0,1.661,1.234,6.461,1.461C30.234,23.661,29,22,29,22h6C35,22,33.766,23.661,33.539,28.461z"/></svg>