<svg fill="#4a90e2" xmlns="http://www.w3.org/2000/svg"  viewBox="0 0 64 64" width="64px" height="64px"><path d="M 40.5 0 A 2.5 2.5 0 0 0 40 4.9492188 L 40 7 A 2 2 0 0 0 38 9 L 38 10.171875 A 3 3 0 0 0 38 15.824219 L 38 27 L 38 30 L 38 47 A 3 3 0 0 0 40 49.824219 L 40 53 A 1 1 0 0 0 41 54 L 42 54 L 42 63 L 44 63 L 44 54 L 45 54 A 1 1 0 0 0 46 53 L 46 49.826172 A 3 3 0 0 0 48 47 L 48 30 L 48 27 L 48 15.828125 A 3 3 0 0 0 48 10.175781 L 48 9 A 2 2 0 0 0 46 7 L 46 4.9472656 A 2.5 2.5 0 0 0 45.5 0 L 40.5 0 z M 40.5 2 L 45.5 2 A 0.5 0.5 0 0 1 45.5 3 L 40.5 3 A 0.5 0.5 0 0 1 40.5 2 z M 42 5 L 44 5 L 44 7 L 42 7 L 42 5 z M 40 9 L 46 9 L 46 10 L 40 10 L 40 9 z M 39 12 L 47 12 A 1 1 0 0 1 47 14 L 39 14 A 1 1 0 0 1 39 12 z M 40 16 L 42 16 L 42 26 L 40 26 L 40 16 z M 44 16 L 46 16 L 46 26 L 44 26 L 44 16 z M 19 22 A 1 1 0 0 0 18 23 L 18 29 A 1 1 0 0 0 19 30 L 20 30 L 20 32.226562 A 7.829 7.829 0 0 0 14 39.828125 L 14 42 L 14 58 L 14 61 A 3 3 0 0 0 17 64 L 31 64 A 3 3 0 0 0 34 61 L 34 48 L 32 48 L 32 61 A 1 1 0 0 1 31 62 L 17 62 A 1 1 0 0 1 16 61 L 16 59 L 27 59 A 1 1 0 0 0 28 58 L 28 42 A 1 1 0 0 0 27 41 L 16 41 L 16 39.828125 A 5.828 5.828 0 0 1 21.828125 34 L 26.171875 34 A 5.828 5.828 0 0 1 32 39.828125 L 32 42 L 34 42 L 34 39.828125 A 7.829 7.829 0 0 0 28 32.226562 L 28 30 L 29 30 A 1 1 0 0 0 30 29 L 30 23 A 1 1 0 0 0 29 22 L 19 22 z M 20 24 L 28 24 L 28 28 L 20 28 L 20 24 z M 40 28 L 46 28 L 46 29 L 40 29 L 40 28 z M 22 30 L 26 30 L 26 32 L 22 32 L 22 30 z M 40 31 L 46 31 L 46 32 L 43 32 L 43 34 L 46 34 L 46 36 L 43 36 L 43 38 L 46 38 L 46 40 L 43 40 L 43 42 L 46 42 L 46 44 L 43 44 L 43 46 L 46 46 L 46 47 A 1 1 0 0 1 45 48 L 41 48 A 1 1 0 0 1 40 47 L 40 31 z M 16 43 L 26 43 L 26 57 L 16 57 L 16 43 z M 32 44 L 32 46 L 34 46 L 34 44 L 32 44 z M 42 50 L 44 50 L 44 52 L 42 52 L 42 50 z"/></svg>