<svg fill="#4a90e2" xmlns="http://www.w3.org/2000/svg"  viewBox="0 0 50 50" width="50px" height="50px"><path d="M 25 4 C 12.382813 4 2 12.882813 2 24 C 2 30.4375 5.554688 36.101563 10.925781 39.742188 C 10.917969 39.96875 10.933594 40.289063 10.65625 41.308594 C 10.3125 42.59375 9.613281 44.398438 8.183594 46.421875 L 7.078125 47.992188 L 8.996094 48 C 15.167969 48.027344 18.730469 44.023438 19.328125 43.328125 C 21.148438 43.730469 23.035156 44 25 44 C 37.617188 44 48 35.117188 48 24 C 48 12.882813 37.617188 4 25 4 Z M 25 6 C 36.683594 6 46 14.132813 46 24 C 46 33.867188 36.683594 42 25 42 C 23.003906 42 21.074219 41.761719 19.246094 41.316406 L 18.628906 41.167969 L 18.230469 41.660156 C 18.230469 41.660156 15.414063 44.847656 10.921875 45.667969 C 11.714844 44.21875 12.308594 42.863281 12.589844 41.828125 C 12.992188 40.339844 12.996094 39.328125 12.996094 39.328125 L 12.996094 38.777344 L 12.53125 38.484375 C 7.320313 35.179688 4 29.917969 4 24 C 4 14.132813 13.316406 6 25 6 Z M 18 17 C 16.355469 17 15 18.355469 15 20 L 15 28 C 15 29.644531 16.355469 31 18 31 L 28 31 C 29.644531 31 31 29.644531 31 28 L 31 27.640625 L 35.359375 29.890625 C 35.503906 29.960938 35.660156 30 35.816406 30 L 36 30 C 36.550781 30 37 29.550781 37 29 L 37 19 C 37 18.449219 36.550781 18 36 18 L 35.816406 18 C 35.660156 18 35.503906 18.039063 35.359375 18.109375 L 31 20.359375 L 31 20 C 31 18.355469 29.644531 17 28 17 Z M 18 19 L 28 19 C 28.566406 19 29 19.433594 29 20 L 29 28 C 29 28.566406 28.566406 29 28 29 L 18 29 C 17.433594 29 17 28.566406 17 28 L 17 20 C 17 19.433594 17.433594 19 18 19 Z M 35 20.546875 L 35 27.453125 L 31 25.390625 L 31 22.609375 Z"/></svg>